<svg xmlns="http://www.w3.org/2000/svg" width="43" height="38" viewBox="0 0 43 38" version="1.1"><path d="M 14.720 7.020 C 11.130 10.309, 7.733 13, 7.169 13 C 6.606 13, 5.325 11.966, 4.323 10.703 C 0.385 5.741, -0 6.294, 0 16.906 C 0 26.652, 0.085 27.027, 3.047 30.400 C 12.011 40.610, 34.730 39.725, 41.563 28.900 C 43.714 25.493, 44 23.898, 44 15.317 L 44 5.594 40.208 9.297 C 38.122 11.334, 35.963 13, 35.411 13 C 34.858 13, 32.627 11.162, 30.453 8.916 C 28.279 6.670, 25.318 3.979, 23.873 2.936 L 21.246 1.039 14.720 7.020 M 15.453 9.077 L 11.500 13.155 15.500 12.446 C 17.700 12.056, 19.837 11.545, 20.250 11.310 C 21.257 10.736, 21.214 5, 20.203 5 C 19.765 5, 17.627 6.835, 15.453 9.077 M 23 7.433 C 23 8.845, 22.960 10.338, 22.912 10.750 C 22.824 11.502, 31.077 13.257, 31.712 12.621 C 31.898 12.435, 30.014 10.614, 27.525 8.574 L 23 4.866 23 7.433 M 0.370 17 C 0.370 22.775, 0.535 25.138, 0.737 22.250 C 0.939 19.363, 0.939 14.638, 0.737 11.750 C 0.535 8.863, 0.370 11.225, 0.370 17 M 2 14.278 C 2 18.259, 2.968 18.948, 5.045 16.445 C 6.124 15.146, 5.980 14.536, 4.168 12.723 L 2 10.556 2 14.278 M 38.200 13.200 C 36.513 14.887, 36.698 15.768, 39 17 C 40.796 17.961, 41 17.760, 41 15.035 C 41 11.807, 40.150 11.250, 38.200 13.200 M 16.358 13.907 C 9.758 15.580, 9.505 15.796, 11.519 18.021 C 13.026 19.686, 14.609 20, 21.500 20 C 28.307 20, 29.984 19.676, 31.428 18.080 C 33.082 16.251, 33.074 16.110, 31.256 15.137 C 28.519 13.672, 20.042 12.972, 16.358 13.907 M 7 20.500 C 7 23.309, 7.299 23.446, 10.130 21.930 C 11.726 21.076, 11.890 20.572, 10.942 19.430 C 9.063 17.166, 7 17.725, 7 20.500 M 32.058 19.430 C 31.106 20.577, 31.302 21.091, 33.043 22.023 C 35.591 23.387, 37.376 22.144, 36.426 19.667 C 35.641 17.622, 33.648 17.514, 32.058 19.430 M 3.011 21.979 C 1.873 24.105, 2.638 29, 4.108 29 C 4.599 29, 5 26.975, 5 24.500 C 5 19.534, 4.595 19.020, 3.011 21.979 M 38.032 25.250 C 38.061 30.084, 38.180 30.346, 39.532 28.559 C 41.094 26.493, 41.382 24.160, 40.393 21.582 C 39.157 18.360, 38.001 20.156, 38.032 25.250 M 17.661 21.707 C 15.945 22.149, 15.974 22.343, 18.085 24.591 C 20.916 27.604, 22.078 27.610, 24.880 24.628 C 26.840 22.541, 26.912 22.180, 25.472 21.628 C 23.676 20.938, 20.514 20.970, 17.661 21.707 M 10.115 23.908 C 8.405 24.991, 10.685 26.382, 16 27.498 L 19.500 28.233 17.076 25.617 C 14.565 22.907, 12.497 22.399, 10.115 23.908 M 26.655 24.829 C 25.745 25.835, 25 26.968, 25 27.348 C 25 28.158, 29.670 27.150, 32.385 25.754 C 33.914 24.968, 34.009 24.619, 32.885 23.908 C 30.691 22.518, 28.445 22.850, 26.655 24.829 M 7.197 28.787 C 7.590 32.050, 11.413 34.777, 16.750 35.600 C 20.984 36.253, 21 36.244, 21 33.128 C 21 30.828, 20.537 29.991, 19.250 29.967 C 18.288 29.949, 15.113 29.110, 12.197 28.103 L 6.893 26.271 7.197 28.787 M 29.250 28.462 C 23.472 30.276, 23 30.643, 23 33.323 C 23 36.129, 23.121 36.200, 26.750 35.537 C 31.118 34.739, 34.530 32.746, 35.895 30.196 C 37.646 26.924, 35.736 26.426, 29.250 28.462" stroke="none" fill="#d99b1d" fill-rule="evenodd"/></svg>