<svg xmlns="http://www.w3.org/2000/svg" width="244" height="237" viewBox="0 0 244 237" version="1.1"><path d="M 78.767 58.933 C 76.223 60.546, 73.657 62.773, 73.063 63.882 C 72.103 65.675, 72.456 66.108, 76.242 67.783 C 80.242 69.552, 86.233 75.198, 87.205 78.115 C 87.558 79.174, 88.413 79.193, 91.687 78.212 C 93.912 77.545, 96.580 77, 97.616 77 C 98.652 76.999, 101.384 74.812, 103.686 72.138 L 107.873 67.277 105.473 63.745 C 100.085 55.816, 87.311 53.514, 78.767 58.933 M 140.969 58.514 C 138.478 59.294, 135.188 61.238, 133.660 62.833 L 130.882 65.733 134.390 67.803 C 136.319 68.941, 138.933 71.486, 140.199 73.458 C 142.159 76.512, 142.870 76.937, 145 76.324 C 146.375 75.928, 150.200 75.578, 153.500 75.545 C 158.549 75.494, 159.936 75.071, 162.250 72.878 C 163.762 71.444, 165 69.744, 165 69.100 C 165 66.766, 161.627 62.867, 157.608 60.555 C 152.203 57.446, 146.580 56.756, 140.969 58.514 M 113.500 68.896 C 109.862 70.580, 103.046 76.613, 104.073 77.240 C 104.308 77.383, 106.665 78.590, 109.311 79.921 C 112.159 81.354, 115.370 84.080, 117.180 86.601 C 119.900 90.388, 120.509 90.757, 122.684 89.930 C 124.030 89.418, 126.676 89, 128.565 89 C 130.454 89, 132 88.613, 132 88.141 C 132 87.668, 133.812 85.223, 136.027 82.707 L 140.054 78.131 136.786 74.409 C 130.622 67.389, 121.447 65.217, 113.500 68.896 M 57.900 70.935 C 52.901 73.655, 48.226 79.280, 47.427 83.535 C 46.203 90.062, 47.459 96.759, 50.665 100.789 C 56.012 107.513, 65.493 110.664, 72.435 108.025 C 74.783 107.132, 75 106.557, 75 101.221 C 75 94.575, 78.472 86.347, 82.669 83.046 C 85.146 81.097, 85.151 81.064, 83.352 78.019 C 78.674 70.099, 65.947 66.557, 57.900 70.935 M 170.500 70.423 C 167.372 71.825, 162.984 75.560, 163.021 76.789 C 163.033 77.180, 164.804 78.746, 166.957 80.268 C 172.794 84.397, 176.378 92.326, 175.767 99.755 C 175.507 102.915, 175.115 106.175, 174.897 107 C 174.215 109.577, 181.772 109.441, 186.942 106.783 C 195.678 102.293, 199.517 93.898, 197.573 83.535 C 196.751 79.156, 191.989 73.545, 186.885 70.941 C 182.458 68.683, 174.915 68.444, 170.500 70.423 M 145 80.066 C 141.923 81.351, 136 86.959, 136 88.588 C 136 89.245, 137.136 90.068, 138.525 90.417 C 142.329 91.372, 149.076 97.949, 151.230 102.803 C 152.535 105.741, 153.061 108.911, 152.891 112.803 L 152.642 118.500 156.055 118.155 C 160.699 117.685, 164.118 115.768, 167.806 111.568 C 175.663 102.620, 174.188 89.822, 164.445 82.391 C 161.354 80.033, 159.596 79.505, 154.110 79.286 C 150.475 79.141, 146.375 79.492, 145 80.066 M 92.885 81.334 C 83.246 84.900, 78.477 92.089, 79.192 101.975 C 79.976 112.814, 87.595 120, 98.304 120 C 106.735 120, 107 119.767, 107 112.353 C 107 105.035, 109.354 99.340, 114.280 94.738 L 117.290 91.926 114.342 88.284 C 109.028 81.718, 99.868 78.752, 92.885 81.334 M 121.500 93.835 C 107.478 100.501, 106.014 119.581, 118.840 128.487 C 122.635 131.121, 124.038 131.500, 130.009 131.496 C 135.982 131.493, 137.371 131.116, 141.080 128.496 C 152.437 120.474, 152.481 103.557, 141.166 95.564 C 135.748 91.737, 127.448 91.007, 121.500 93.835 M 46.102 113.041 C 41.143 116.633, 36.505 123.564, 34.465 130.432 C 33.659 133.144, 33 135.731, 33 136.182 C 33 136.632, 39.956 137, 48.458 137 L 63.916 137 66.502 132.586 C 69.053 128.233, 75.123 122.060, 80 118.859 L 82.500 117.218 80.150 114.688 C 77.859 112.222, 77.698 112.196, 73.650 113.658 C 68.524 115.509, 61.231 114.844, 55.836 112.031 C 53.692 110.914, 51.570 110, 51.119 110 C 50.669 110, 48.411 111.369, 46.102 113.041 M 188.500 112.317 C 185.438 113.988, 182.800 114.502, 177.250 114.509 C 173.263 114.515, 169.977 114.884, 169.949 115.331 C 169.920 115.777, 171.680 117.434, 173.859 119.013 C 178.271 122.209, 182.361 126.999, 185.555 132.709 L 187.675 136.500 199.003 136.784 C 205.234 136.941, 210.709 136.691, 211.170 136.230 C 212.408 134.992, 209.509 126.191, 206.083 120.791 C 203.196 116.239, 195.852 109.930, 193.600 110.067 C 192.995 110.104, 190.700 111.116, 188.500 112.317 M 163.343 121.690 C 161.057 122.986, 157.067 124.214, 154.477 124.418 C 151.259 124.671, 149.091 125.493, 147.633 127.012 C 146.101 128.608, 145.860 129.368, 146.777 129.709 C 149.968 130.897, 158.157 138.379, 160.220 141.992 L 162.500 145.985 174.361 145.992 L 186.223 146 185.529 142.305 C 184.004 134.176, 176.615 123.832, 170 120.566 C 167.843 119.502, 166.930 119.656, 163.343 121.690 M 79.318 123.885 C 73.253 128.278, 69.131 133.872, 67.076 140.500 C 66.053 143.800, 65.419 146.838, 65.667 147.250 C 65.915 147.662, 72.758 148, 80.874 148 L 95.629 148 99.565 142.292 C 103.115 137.142, 109.786 130.987, 113.194 129.717 C 114.123 129.371, 113.758 128.462, 111.933 126.571 C 109.697 124.254, 109.010 124.046, 106.617 124.955 C 101.514 126.896, 92.914 126.212, 88.148 123.488 C 85.754 122.120, 83.684 121, 83.548 121 C 83.412 121, 81.508 122.298, 79.318 123.885 M 106.525 139.290 C 101.605 144.210, 99.850 146.800, 98.469 151.182 C 95.503 160.590, 93.353 160, 130.596 160 L 163.256 160 162.603 155.917 C 161.587 149.566, 157.596 142.721, 151.947 137.642 C 149.107 135.089, 146.270 133.002, 145.642 133.004 C 145.014 133.006, 142.286 134.131, 139.581 135.504 C 133.174 138.755, 127.154 138.750, 120.151 135.490 C 117.209 134.121, 114.354 133, 113.808 133 C 113.262 133, 109.984 135.831, 106.525 139.290" stroke="none" fill="#f5f5f5" fill-rule="evenodd"/><path d="M 0 118.504 L 0 237.008 122.250 236.754 L 244.500 236.500 244.754 118.250 L 245.008 -0 122.504 -0 L 0 0 0 118.504 M 0.484 119 C 0.484 184.175, 0.604 210.838, 0.750 178.250 C 0.896 145.663, 0.896 92.338, 0.750 59.750 C 0.604 27.163, 0.484 53.825, 0.484 119 M 78.767 58.933 C 76.223 60.546, 73.657 62.773, 73.063 63.882 C 72.103 65.675, 72.456 66.108, 76.242 67.783 C 80.242 69.552, 86.233 75.198, 87.205 78.115 C 87.558 79.174, 88.413 79.193, 91.687 78.212 C 93.912 77.545, 96.580 77, 97.616 77 C 98.652 76.999, 101.384 74.812, 103.686 72.138 L 107.873 67.277 105.473 63.745 C 100.085 55.816, 87.311 53.514, 78.767 58.933 M 140.969 58.514 C 138.478 59.294, 135.188 61.238, 133.660 62.833 L 130.882 65.733 134.390 67.803 C 136.319 68.941, 138.933 71.486, 140.199 73.458 C 142.159 76.512, 142.870 76.937, 145 76.324 C 146.375 75.928, 150.200 75.578, 153.500 75.545 C 158.549 75.494, 159.936 75.071, 162.250 72.878 C 163.762 71.444, 165 69.744, 165 69.100 C 165 66.766, 161.627 62.867, 157.608 60.555 C 152.203 57.446, 146.580 56.756, 140.969 58.514 M 113.500 68.896 C 109.862 70.580, 103.046 76.613, 104.073 77.240 C 104.308 77.383, 106.665 78.590, 109.311 79.921 C 112.159 81.354, 115.370 84.080, 117.180 86.601 C 119.900 90.388, 120.509 90.757, 122.684 89.930 C 124.030 89.418, 126.676 89, 128.565 89 C 130.454 89, 132 88.613, 132 88.141 C 132 87.668, 133.812 85.223, 136.027 82.707 L 140.054 78.131 136.786 74.409 C 130.622 67.389, 121.447 65.217, 113.500 68.896 M 57.900 70.935 C 52.901 73.655, 48.226 79.280, 47.427 83.535 C 46.203 90.062, 47.459 96.759, 50.665 100.789 C 56.012 107.513, 65.493 110.664, 72.435 108.025 C 74.783 107.132, 75 106.557, 75 101.221 C 75 94.575, 78.472 86.347, 82.669 83.046 C 85.146 81.097, 85.151 81.064, 83.352 78.019 C 78.674 70.099, 65.947 66.557, 57.900 70.935 M 170.500 70.423 C 167.372 71.825, 162.984 75.560, 163.021 76.789 C 163.033 77.180, 164.804 78.746, 166.957 80.268 C 172.794 84.397, 176.378 92.326, 175.767 99.755 C 175.507 102.915, 175.115 106.175, 174.897 107 C 174.215 109.577, 181.772 109.441, 186.942 106.783 C 195.678 102.293, 199.517 93.898, 197.573 83.535 C 196.751 79.156, 191.989 73.545, 186.885 70.941 C 182.458 68.683, 174.915 68.444, 170.500 70.423 M 145 80.066 C 141.923 81.351, 136 86.959, 136 88.588 C 136 89.245, 137.136 90.068, 138.525 90.417 C 142.329 91.372, 149.076 97.949, 151.230 102.803 C 152.535 105.741, 153.061 108.911, 152.891 112.803 L 152.642 118.500 156.055 118.155 C 160.699 117.685, 164.118 115.768, 167.806 111.568 C 175.663 102.620, 174.188 89.822, 164.445 82.391 C 161.354 80.033, 159.596 79.505, 154.110 79.286 C 150.475 79.141, 146.375 79.492, 145 80.066 M 92.885 81.334 C 83.246 84.900, 78.477 92.089, 79.192 101.975 C 79.976 112.814, 87.595 120, 98.304 120 C 106.735 120, 107 119.767, 107 112.353 C 107 105.035, 109.354 99.340, 114.280 94.738 L 117.290 91.926 114.342 88.284 C 109.028 81.718, 99.868 78.752, 92.885 81.334 M 121.500 93.835 C 107.478 100.501, 106.014 119.581, 118.840 128.487 C 122.635 131.121, 124.038 131.500, 130.009 131.496 C 135.982 131.493, 137.371 131.116, 141.080 128.496 C 152.437 120.474, 152.481 103.557, 141.166 95.564 C 135.748 91.737, 127.448 91.007, 121.500 93.835 M 46.102 113.041 C 41.143 116.633, 36.505 123.564, 34.465 130.432 C 33.659 133.144, 33 135.731, 33 136.182 C 33 136.632, 39.956 137, 48.458 137 L 63.916 137 66.502 132.586 C 69.053 128.233, 75.123 122.060, 80 118.859 L 82.500 117.218 80.150 114.688 C 77.859 112.222, 77.698 112.196, 73.650 113.658 C 68.524 115.509, 61.231 114.844, 55.836 112.031 C 53.692 110.914, 51.570 110, 51.119 110 C 50.669 110, 48.411 111.369, 46.102 113.041 M 188.500 112.317 C 185.438 113.988, 182.800 114.502, 177.250 114.509 C 173.263 114.515, 169.977 114.884, 169.949 115.331 C 169.920 115.777, 171.680 117.434, 173.859 119.013 C 178.271 122.209, 182.361 126.999, 185.555 132.709 L 187.675 136.500 199.003 136.784 C 205.234 136.941, 210.709 136.691, 211.170 136.230 C 212.408 134.992, 209.509 126.191, 206.083 120.791 C 203.196 116.239, 195.852 109.930, 193.600 110.067 C 192.995 110.104, 190.700 111.116, 188.500 112.317 M 163.343 121.690 C 161.057 122.986, 157.067 124.214, 154.477 124.418 C 151.259 124.671, 149.091 125.493, 147.633 127.012 C 146.101 128.608, 145.860 129.368, 146.777 129.709 C 149.968 130.897, 158.157 138.379, 160.220 141.992 L 162.500 145.985 174.361 145.992 L 186.223 146 185.529 142.305 C 184.004 134.176, 176.615 123.832, 170 120.566 C 167.843 119.502, 166.930 119.656, 163.343 121.690 M 79.318 123.885 C 73.253 128.278, 69.131 133.872, 67.076 140.500 C 66.053 143.800, 65.419 146.838, 65.667 147.250 C 65.915 147.662, 72.758 148, 80.874 148 L 95.629 148 99.565 142.292 C 103.115 137.142, 109.786 130.987, 113.194 129.717 C 114.123 129.371, 113.758 128.462, 111.933 126.571 C 109.697 124.254, 109.010 124.046, 106.617 124.955 C 101.514 126.896, 92.914 126.212, 88.148 123.488 C 85.754 122.120, 83.684 121, 83.548 121 C 83.412 121, 81.508 122.298, 79.318 123.885 M 106.525 139.290 C 101.605 144.210, 99.850 146.800, 98.469 151.182 C 95.503 160.590, 93.353 160, 130.596 160 L 163.256 160 162.603 155.917 C 161.587 149.566, 157.596 142.721, 151.947 137.642 C 149.107 135.089, 146.270 133.002, 145.642 133.004 C 145.014 133.006, 142.286 134.131, 139.581 135.504 C 133.174 138.755, 127.154 138.750, 120.151 135.490 C 117.209 134.121, 114.354 133, 113.808 133 C 113.262 133, 109.984 135.831, 106.525 139.290" stroke="none" fill="#0d0d0d" fill-rule="evenodd"/></svg>