<svg xmlns="http://www.w3.org/2000/svg" width="247" height="243" viewBox="0 0 247 243" version="1.1"><path d="M 110.362 57.981 C 98.975 60.967, 85.044 68.997, 77.584 76.876 L 74.667 79.957 69.334 76.905 L 64 73.853 64 90.427 C 64 99.542, 64.178 107, 64.395 107 C 64.611 107, 71.182 103.338, 78.995 98.863 L 93.201 90.726 87.600 87.624 C 84.520 85.918, 82 84.200, 82 83.806 C 82 82.359, 94.456 73.069, 100.386 70.094 C 110.237 65.151, 117.782 63.690, 130.481 64.265 C 142.940 64.829, 149.527 66.746, 159.199 72.621 C 170.961 79.766, 180.282 91.395, 185.150 105 C 187.132 110.539, 187.476 113.422, 187.476 124.500 C 187.476 135.578, 187.132 138.461, 185.150 144 C 178.658 162.143, 165.143 175.658, 147 182.150 C 141.461 184.132, 138.578 184.476, 127.500 184.476 C 116.588 184.476, 113.510 184.120, 108.333 182.256 C 85.315 173.967, 69.447 154.302, 67.166 131.240 L 66.500 124.500 63 124.500 C 59.654 124.500, 59.486 124.671, 59.181 128.392 C 58.684 134.457, 61.770 146.316, 66.049 154.787 C 78.182 178.804, 101.010 193, 127.500 193 C 165.572 193, 196 162.572, 196 124.500 C 196 92.963, 174.847 65.761, 144.234 57.932 C 134.383 55.412, 120.081 55.433, 110.362 57.981 M 124 77.460 L 124 83.920 119.941 85.136 C 114.598 86.737, 107.442 93.130, 105.957 97.630 C 105.307 99.600, 104.966 103.857, 105.200 107.091 C 105.833 115.834, 108.926 119.145, 123.069 126.213 C 137.046 133.199, 140 136.112, 140 142.910 C 140 146.881, 139.475 148.350, 137.180 150.807 C 132.016 156.335, 122.029 157.165, 112.123 152.889 C 109.715 151.850, 107.397 151, 106.971 151 C 106.140 151, 104 156.459, 104 158.577 C 104 160.031, 113.849 164, 117.456 164 C 122.411 164, 123 164.808, 123 171.607 L 123 178 127 178 L 131 178 131 171.130 L 131 164.260 135.394 163.030 C 150.729 158.736, 156.536 139.995, 146.253 127.982 C 143.526 124.797, 139.818 122.393, 131.343 118.319 C 118.576 112.180, 116 109.695, 116 103.511 C 116 95.393, 123.797 90.937, 134.530 92.921 C 137.542 93.478, 140.876 94.398, 141.938 94.967 C 144.974 96.592, 145.596 96.257, 147.219 92.124 L 148.742 88.247 145.194 86.556 C 143.243 85.625, 139.476 84.607, 136.823 84.293 L 132 83.721 132 77.361 L 132 71 128 71 L 124 71 124 77.460" stroke="none" fill="#f4f4f4" fill-rule="evenodd"/><path d="M -0 121.504 L -0 243.008 123.750 242.754 L 247.500 242.500 247.754 121.250 L 248.008 0 124.004 0 L 0 0 -0 121.504 M 0.484 122 C 0.484 188.825, 0.604 216.162, 0.750 182.750 C 0.896 149.337, 0.896 94.662, 0.750 61.250 C 0.604 27.837, 0.484 55.175, 0.484 122 M 110.362 57.981 C 98.975 60.967, 85.044 68.997, 77.584 76.876 L 74.667 79.957 69.334 76.905 L 64 73.853 64 90.427 C 64 99.542, 64.178 107, 64.395 107 C 64.611 107, 71.182 103.338, 78.995 98.863 L 93.201 90.726 87.600 87.624 C 84.520 85.918, 82 84.200, 82 83.806 C 82 82.359, 94.456 73.069, 100.386 70.094 C 110.237 65.151, 117.782 63.690, 130.481 64.265 C 142.940 64.829, 149.527 66.746, 159.199 72.621 C 170.961 79.766, 180.282 91.395, 185.150 105 C 187.132 110.539, 187.476 113.422, 187.476 124.500 C 187.476 135.578, 187.132 138.461, 185.150 144 C 178.658 162.143, 165.143 175.658, 147 182.150 C 141.461 184.132, 138.578 184.476, 127.500 184.476 C 116.588 184.476, 113.510 184.120, 108.333 182.256 C 85.315 173.967, 69.447 154.302, 67.166 131.240 L 66.500 124.500 63 124.500 C 59.654 124.500, 59.486 124.671, 59.181 128.392 C 58.684 134.457, 61.770 146.316, 66.049 154.787 C 78.182 178.804, 101.010 193, 127.500 193 C 165.572 193, 196 162.572, 196 124.500 C 196 92.963, 174.847 65.761, 144.234 57.932 C 134.383 55.412, 120.081 55.433, 110.362 57.981 M 124 77.460 L 124 83.920 119.941 85.136 C 114.598 86.737, 107.442 93.130, 105.957 97.630 C 105.307 99.600, 104.966 103.857, 105.200 107.091 C 105.833 115.834, 108.926 119.145, 123.069 126.213 C 137.046 133.199, 140 136.112, 140 142.910 C 140 146.881, 139.475 148.350, 137.180 150.807 C 132.016 156.335, 122.029 157.165, 112.123 152.889 C 109.715 151.850, 107.397 151, 106.971 151 C 106.140 151, 104 156.459, 104 158.577 C 104 160.031, 113.849 164, 117.456 164 C 122.411 164, 123 164.808, 123 171.607 L 123 178 127 178 L 131 178 131 171.130 L 131 164.260 135.394 163.030 C 150.729 158.736, 156.536 139.995, 146.253 127.982 C 143.526 124.797, 139.818 122.393, 131.343 118.319 C 118.576 112.180, 116 109.695, 116 103.511 C 116 95.393, 123.797 90.937, 134.530 92.921 C 137.542 93.478, 140.876 94.398, 141.938 94.967 C 144.974 96.592, 145.596 96.257, 147.219 92.124 L 148.742 88.247 145.194 86.556 C 143.243 85.625, 139.476 84.607, 136.823 84.293 L 132 83.721 132 77.361 L 132 71 128 71 L 124 71 124 77.460" stroke="none" fill="#050505" fill-rule="evenodd"/></svg>