<svg xmlns="http://www.w3.org/2000/svg" width="236" height="224" viewBox="0 0 236 224" version="1.1"><path d="M 55.500 28.491 C 54.950 28.675, 53.251 29.101, 51.725 29.438 C 48.133 30.231, 41.356 36.375, 39.047 40.932 C 33.147 52.578, 37.896 69.376, 52.071 87 C 60.701 97.729, 78.942 117, 80.467 117 C 82.324 117, 104.439 93.845, 111.329 84.687 C 126.071 65.091, 128.952 47.415, 119.276 35.917 C 114.896 30.711, 109.493 28.533, 100.982 28.542 C 92.576 28.551, 88.482 30.355, 83.663 36.172 L 81.008 39.376 76.416 34.785 C 73.289 31.657, 70.437 29.844, 67.470 29.097 C 63.331 28.054, 57.668 27.768, 55.500 28.491 M 179.722 103.004 L 177 105.145 177 141.350 C 177 172.500, 177.217 177.865, 178.557 179.777 C 180.054 181.915, 180.720 182, 195.902 182 C 209.927 182, 211.875 181.796, 213.345 180.171 C 214.821 178.540, 215 174.404, 215 141.862 C 215 111.962, 214.744 105.032, 213.583 103.441 C 212.310 101.698, 210.651 101.468, 197.305 101.181 C 183.372 100.883, 182.274 100.996, 179.722 103.004 M 151.232 115.520 C 147.784 116.269, 139.894 118.933, 133.699 121.441 L 122.434 126 109.467 126.006 C 93.956 126.012, 90.161 126.914, 86.082 131.559 C 82.406 135.746, 82.277 137.007, 85.250 139.656 C 89.473 143.418, 95.223 144.262, 111.460 143.503 C 123.270 142.951, 126.249 143.061, 125.332 144.018 C 123.593 145.831, 109.323 148.983, 102.812 148.992 C 92.991 149.006, 84.561 146.332, 68.573 138.132 C 53.149 130.221, 45.066 127, 40.639 127 C 37.491 127, 32.642 131.035, 30.987 135.032 C 29.596 138.390, 30.839 144.819, 33.255 146.766 C 34.342 147.643, 61.232 162.724, 77 171.301 C 80.025 172.946, 85.425 175.977, 89 178.035 C 102.475 185.794, 104.880 186.956, 108.640 187.523 C 111.778 187.996, 117.366 186.481, 138.500 179.429 C 152.800 174.658, 166.525 170.472, 169 170.127 L 173.500 169.500 173.766 141.750 L 174.032 114 165.766 114.079 C 161.220 114.123, 154.679 114.772, 151.232 115.520" stroke="none" fill="#f6f6f6" fill-rule="evenodd"/><path d="M 0 112.004 L 0 224.008 118.250 223.754 L 236.500 223.500 236.754 111.750 L 237.009 -0 118.504 -0 L 0 0 0 112.004 M 0.483 112.500 C 0.483 174.100, 0.603 199.153, 0.750 168.173 C 0.897 137.193, 0.897 86.793, 0.750 56.173 C 0.603 25.553, 0.483 50.900, 0.483 112.500 M 55.500 28.491 C 54.950 28.675, 53.251 29.101, 51.725 29.438 C 48.133 30.231, 41.356 36.375, 39.047 40.932 C 33.147 52.578, 37.896 69.376, 52.071 87 C 60.701 97.729, 78.942 117, 80.467 117 C 82.324 117, 104.439 93.845, 111.329 84.687 C 126.071 65.091, 128.952 47.415, 119.276 35.917 C 114.896 30.711, 109.493 28.533, 100.982 28.542 C 92.576 28.551, 88.482 30.355, 83.663 36.172 L 81.008 39.376 76.416 34.785 C 73.289 31.657, 70.437 29.844, 67.470 29.097 C 63.331 28.054, 57.668 27.768, 55.500 28.491 M 179.722 103.004 L 177 105.145 177 141.350 C 177 172.500, 177.217 177.865, 178.557 179.777 C 180.054 181.915, 180.720 182, 195.902 182 C 209.927 182, 211.875 181.796, 213.345 180.171 C 214.821 178.540, 215 174.404, 215 141.862 C 215 111.962, 214.744 105.032, 213.583 103.441 C 212.310 101.698, 210.651 101.468, 197.305 101.181 C 183.372 100.883, 182.274 100.996, 179.722 103.004 M 151.232 115.520 C 147.784 116.269, 139.894 118.933, 133.699 121.441 L 122.434 126 109.467 126.006 C 93.956 126.012, 90.161 126.914, 86.082 131.559 C 82.406 135.746, 82.277 137.007, 85.250 139.656 C 89.473 143.418, 95.223 144.262, 111.460 143.503 C 123.270 142.951, 126.249 143.061, 125.332 144.018 C 123.593 145.831, 109.323 148.983, 102.812 148.992 C 92.991 149.006, 84.561 146.332, 68.573 138.132 C 53.149 130.221, 45.066 127, 40.639 127 C 37.491 127, 32.642 131.035, 30.987 135.032 C 29.596 138.390, 30.839 144.819, 33.255 146.766 C 34.342 147.643, 61.232 162.724, 77 171.301 C 80.025 172.946, 85.425 175.977, 89 178.035 C 102.475 185.794, 104.880 186.956, 108.640 187.523 C 111.778 187.996, 117.366 186.481, 138.500 179.429 C 152.800 174.658, 166.525 170.472, 169 170.127 L 173.500 169.500 173.766 141.750 L 174.032 114 165.766 114.079 C 161.220 114.123, 154.679 114.772, 151.232 115.520" stroke="none" fill="#060606" fill-rule="evenodd"/></svg>